REM MD5 7c6829d95fd2b9bc967c664d1e4461c6
FILE "Tomb Raider II - Starring Lara Croft (USA) (Rev 2).bin" BINARY
  TRACK 01 MODE2/2352
    INDEX 01 00:00:00
  TRACK 02 AUDIO
    INDEX 00 29:23:71
    INDEX 01 29:25:71
  TRACK 03 AUDIO
    INDEX 00 30:51:30
    INDEX 01 30:53:30
  TRACK 04 AUDIO
    INDEX 00 32:47:55
    INDEX 01 32:49:55
  TRACK 05 AUDIO
    INDEX 00 35:05:40
    INDEX 01 35:07:40
  TRACK 06 AUDIO
    INDEX 00 35:15:25
    INDEX 01 35:17:25
  TRACK 07 AUDIO
    INDEX 00 35:24:22
    INDEX 01 35:26:22
  TRACK 08 AUDIO
    INDEX 00 35:31:23
    INDEX 01 35:33:23
  TRACK 09 AUDIO
    INDEX 00 35:38:25
    INDEX 01 35:40:25
  TRACK 10 AUDIO
    INDEX 00 35:46:25
    INDEX 01 35:48:25
  TRACK 11 AUDIO
    INDEX 00 35:59:49
    INDEX 01 36:01:49
  TRACK 12 AUDIO
    INDEX 00 36:17:34
    INDEX 01 36:19:34
  TRACK 13 AUDIO
    INDEX 00 36:27:72
    INDEX 01 36:29:72
  TRACK 14 AUDIO
    INDEX 00 36:39:06
    INDEX 01 36:41:06
  TRACK 15 AUDIO
    INDEX 00 36:46:07
    INDEX 01 36:48:07
  TRACK 16 AUDIO
    INDEX 00 36:53:08
    INDEX 01 36:55:08
  TRACK 17 AUDIO
    INDEX 00 37:00:10
    INDEX 01 37:02:10
  TRACK 18 AUDIO
    INDEX 00 37:11:12
    INDEX 01 37:13:12
  TRACK 19 AUDIO
    INDEX 00 37:18:13
    INDEX 01 37:20:13
  TRACK 20 AUDIO
    INDEX 00 37:25:14
    INDEX 01 37:27:14
  TRACK 21 AUDIO
    INDEX 00 37:32:15
    INDEX 01 37:34:15
  TRACK 22 AUDIO
    INDEX 00 37:39:16
    INDEX 01 37:41:16
  TRACK 23 AUDIO
    INDEX 00 37:46:17
    INDEX 01 37:48:17
  TRACK 24 AUDIO
    INDEX 00 38:04:66
    INDEX 01 38:06:66
  TRACK 25 AUDIO
    INDEX 00 38:15:67
    INDEX 01 38:17:67
  TRACK 26 AUDIO
    INDEX 00 38:22:68
    INDEX 01 38:24:68
  TRACK 27 AUDIO
    INDEX 00 39:16:58
    INDEX 01 39:18:58
  TRACK 28 AUDIO
    INDEX 00 40:18:44
    INDEX 01 40:20:44
  TRACK 29 AUDIO
    INDEX 00 41:41:44
    INDEX 01 41:43:44
  TRACK 30 AUDIO
    INDEX 00 42:50:00
    INDEX 01 42:52:00
  TRACK 31 AUDIO
    INDEX 00 44:25:67
    INDEX 01 44:27:67
  TRACK 32 AUDIO
    INDEX 00 44:35:49
    INDEX 01 44:37:49
  TRACK 33 AUDIO
    INDEX 00 44:42:22
    INDEX 01 44:44:22
  TRACK 34 AUDIO
    INDEX 00 45:00:57
    INDEX 01 45:02:57
  TRACK 35 AUDIO
    INDEX 00 45:57:16
    INDEX 01 45:59:16
  TRACK 36 AUDIO
    INDEX 00 46:19:07
    INDEX 01 46:21:07
  TRACK 37 AUDIO
    INDEX 00 49:00:01
    INDEX 01 49:02:01
  TRACK 38 AUDIO
    INDEX 00 49:14:14
    INDEX 01 49:16:14
  TRACK 39 AUDIO
    INDEX 00 49:27:46
    INDEX 01 49:29:46
  TRACK 40 AUDIO
    INDEX 00 49:44:34
    INDEX 01 49:46:34
  TRACK 41 AUDIO
    INDEX 00 50:04:22
    INDEX 01 50:06:22
  TRACK 42 AUDIO
    INDEX 00 51:05:28
    INDEX 01 51:07:28
  TRACK 43 AUDIO
    INDEX 00 51:40:58
    INDEX 01 51:42:58
  TRACK 44 AUDIO
    INDEX 00 51:47:12
    INDEX 01 51:49:12
  TRACK 45 AUDIO
    INDEX 00 52:03:11
    INDEX 01 52:05:11
  TRACK 46 AUDIO
    INDEX 00 52:15:09
    INDEX 01 52:17:09
  TRACK 47 AUDIO
    INDEX 00 52:29:36
    INDEX 01 52:31:36
  TRACK 48 AUDIO
    INDEX 00 52:39:69
    INDEX 01 52:41:69
  TRACK 49 AUDIO
    INDEX 00 55:25:02
    INDEX 01 55:27:02
  TRACK 50 AUDIO
    INDEX 00 56:38:27
    INDEX 01 56:40:27
  TRACK 51 AUDIO
    INDEX 00 56:47:74
    INDEX 01 56:49:74
  TRACK 52 AUDIO
    INDEX 00 57:32:07
    INDEX 01 57:34:07
  TRACK 53 AUDIO
    INDEX 00 57:43:67
    INDEX 01 57:45:67
  TRACK 54 AUDIO
    INDEX 00 58:34:73
    INDEX 01 58:36:73
  TRACK 55 AUDIO
    INDEX 00 59:47:64
    INDEX 01 59:49:64
  TRACK 56 AUDIO
    INDEX 00 62:08:56
    INDEX 01 62:10:56
  TRACK 57 AUDIO
    INDEX 00 63:56:34
    INDEX 01 63:58:34
  TRACK 58 AUDIO
    INDEX 00 64:22:04
    INDEX 01 64:24:04
  TRACK 59 AUDIO
    INDEX 00 64:45:53
    INDEX 01 64:47:53
  TRACK 60 AUDIO
    INDEX 00 65:05:32
    INDEX 01 65:07:32
  TRACK 61 AUDIO
    INDEX 00 67:54:04
    INDEX 01 67:56:04
REM LEADOUT 68:13:58
